<svg xmlns="http://www.w3.org/2000/svg" version="1.1" xmlns:xlink="http://www.w3.org/1999/xlink" xmlns:svgjs="http://svgjs.dev/svgjs" width="1000" height="1000"><g clip-path="url(#SvgjsClipPath1132)"><rect width="1000" height="1000" fill="#ffffff"></rect><g transform="matrix(0.9259259259259259,0,0,0.9259259259259259,0,0)"><svg xmlns="http://www.w3.org/2000/svg" version="1.1" xmlns:xlink="http://www.w3.org/1999/xlink" xmlns:svgjs="http://svgjs.dev/svgjs" width="1080" height="1080"><svg version="1.2" xmlns="http://www.w3.org/2000/svg" viewBox="0 0 1080 1080" width="1080" height="1080"><style>.a{stroke:#fff;stroke-width:11}</style><path fill-rule="evenodd" class="a" d="m219.2 1024.2c-1.7-0.5-9.8-1.9-17.9-3.6-24.8-4.5-36.3-16.5-36.3-38.1 0-25 20.7-40.6 43.8-32.8 11 3.8 47 3.1 61.4-1.2 30.2-9 56.6-29.1 75.1-57.2 16.5-24.8 29.6-30.3 46.9-19.2 8.5 5.5 16.4 19.9 16.4 29.8 0 18.7-31.2 62-61.4 85.6-14.8 11.6-41.8 25.1-61.4 30.7-16 4.8-57.9 8.6-66.6 6zm579.3-2.4c-42.5-8.8-77.2-30.7-108.5-68.8-17-20.6-27.4-39.7-27.4-50.4 0-10.4 7.7-25 16.4-30.5 17.3-11.1 30.4-5.6 46.9 19.2 19.1 29.1 49.7 51.5 79.3 58.4 14.7 3.5 46.8 3.5 57.2 0 10.6-3.6 17.9-2.9 26.9 2.3 21.8 12.6 22.4 47.8 1.2 61.8-15.2 10.1-62.2 14.1-92 8zm-585.6-99.5c-32-9.5-56.2-32-70.5-65-15.7-36-15.7-70.5-0.7-107.1 18.8-45.2 66.6-75 109.1-68.1l12.1 2.1 95.9-189.4c52.9-104.2 96.6-190 97.1-191 0.4-0.9-2.3-6.1-6.1-11.8-3.7-5.7-9.3-16.5-12.5-24.6-36-90.7 37.3-190.5 123.1-167.6 54.3 14.7 90.5 76.1 81.4 137.8-2.8 18.2-12.7 44.5-21.7 56.5-3.1 4.3-5.4 8.6-4.8 9.5 0.4 1.2 44.1 87 97 191.2l96 189.4 12.7-2.1c21.2-3.3 47.7 3.5 68.9 17.7 12.9 8.5 31.4 31.7 38.7 48 41.2 92.7-31.6 198.3-120.1 174.7-30.8-8.3-58.3-33.3-71.8-65.5l-7.7-18.4h-386.4l-7.9 18.4c-22.3 51.3-74.7 79.4-121.8 65.3zm38.5-70.5c33.1-11.3 42.3-61.9 15.9-87.2-14.4-13.7-39.4-14.9-54.8-2.6-26 20.8-24.1 69 3.5 85.3 14 8.3 21.3 9.2 35.4 4.5zm602.3-3.5c29.1-17.1 31.8-64.8 5-86.3-10.2-8.1-28.3-10.9-40.8-6.2-30.6 11.4-39.6 57.7-16.3 83.5 14.2 15.6 34.4 19.1 52.1 9zm-118.5-95.3c3.1-8.3 8.8-19.1 12.5-24.1 5.8-8.3 6.3-9.7 3.8-14.2-1.5-2.8-45.2-88.6-97.1-190.8l-94.3-185.6-12.2 1.9c-7.3 1.5-17.3 1.5-24.6 0l-12.3-1.9-94.3 185.6c-51.8 102.2-95.5 188-97 190.8-2.5 4.5-2.1 5.9 3.8 14.2 3.7 5 9.3 15.8 12.5 24.1l6 14.7h387.2zm-175.1-492c32.3-24.1 23.1-81.3-14.6-91.5-13.1-3.8-27.4 0-37.8 9.9-26.3 24.6-20 71.9 11.4 87 2.7 1.2 11.2 2.2 18.7 1.7 10.9-0.5 15.7-1.9 22.3-7.1zm-491.9 526.9c-8.5-4.2-17.3-16.3-18.9-26-2.9-17.9 15.4-65.9 36.8-96.6 14.4-21.1 39.6-44.7 60.2-57 29.1-17.5 74.7-29.6 93.2-24.8 18.4 4.7 28.6 30.2 20.2 50.1-5.2 12.3-15.2 18.4-34.3 20.8-46.4 5.9-85 35.9-104.1 81.3-4.4 10.4-9.6 23.9-11.5 30.3-6.2 19.8-25.8 30.2-41.6 21.9zm909.1-0.7c-9-4.9-14.4-13-17.9-26.9-14.8-55.8-60.8-100-109.9-105.2-18.8-1.9-25-4.7-33.1-14.2-6.5-7.6-7.1-9.5-7.1-22.9 0-32.4 19.1-41.9 63.3-31.2 67.6 16 123.8 73 144.9 146.5 6.6 23 6 32.4-2.5 44-10 13.5-24.6 17.3-37.7 9.9zm-600-450.3c-8.1-4.7-10.4-7.8-18.1-25.5-21.8-49.7-24.5-108.3-8.1-163.9 12.1-39.9 41.9-87.4 58.7-93.8 18.3-6.9 38.7 7.5 40.4 28.3 1 14.7-0.4 19-12.5 36-6.9 9.4-15.2 23.1-18.7 30.7-18.6 39.5-19.4 98.4-1.7 137.6 14.8 32.6-12.1 66.7-40 50.6zm292.5 1.6c-16-6.3-24.5-25.7-18.9-43 13.7-41.8 14.3-44.7 15.4-68.3 1.6-42.6-7.9-74.9-32.9-109.2-12.1-17-13.5-21.3-12.5-36 1.7-20.8 22.1-35.2 40.4-28.3 9.6 3.5 28.3 26.9 41.6 51.8 33.1 62.4 36.7 142.7 9 205.9-7.7 17.7-9.8 20.8-18.1 25.5-10.7 6.1-12.7 6.1-24 1.6z"></path></svg></svg></g></g><defs><clipPath id="SvgjsClipPath1132"><rect width="1000" height="1000" x="0" y="0" rx="350" ry="350"></rect></clipPath></defs></svg>